<?xml version="1.0" encoding="utf-8"?>
<!-- Generator: Adobe Illustrator 27.2.0, SVG Export Plug-In . SVG Version: 6.00 Build 0)  -->
<svg version="1.1" id="Layer_1" xmlns="http://www.w3.org/2000/svg" xmlns:xlink="http://www.w3.org/1999/xlink" x="0px" y="0px"
	 viewBox="0 15 300 57"  xml:space="preserve">
<g>
	<path fill="#44e35f" d="M5.83,67.81c-0.58-1.5-0.87-3.89-0.87-7.18c0-4.86,0.69-9.48,2.08-13.85c0.34-1.08,0.89-1.88,1.65-2.38
		c0.77-0.5,1.84-0.76,3.23-0.76c0.75,0,1.27,0.09,1.57,0.28c0.3,0.19,0.45,0.54,0.45,1.07c0,0.6-0.28,1.94-0.84,4.04
		c-0.37,1.5-0.67,2.8-0.9,3.9c-0.22,1.1-0.41,2.48-0.56,4.12c1.01-2.92,2.22-5.38,3.62-7.4c1.4-2.02,2.84-3.52,4.32-4.52
		c1.48-0.99,2.87-1.49,4.18-1.49c1.31,0,2.23,0.3,2.78,0.9c0.54,0.6,0.81,1.51,0.81,2.75c0,1.2-0.36,3.36-1.07,6.51
		c-0.3,1.35-0.5,2.36-0.62,3.03c1.87-4.6,3.94-7.95,6.23-10.04c2.28-2.09,4.41-3.14,6.39-3.14c2.43,0,3.65,1.22,3.65,3.65
		c0,1.46-0.41,4.09-1.23,7.91c-0.71,3.25-1.07,5.4-1.07,6.45c0,1.5,0.54,2.24,1.63,2.24c0.75,0,1.64-0.46,2.66-1.38
		c1.03-0.92,2.4-2.4,4.12-4.46c0.45-0.52,0.95-0.79,1.51-0.79c0.49,0,0.87,0.22,1.15,0.67c0.28,0.45,0.42,1.07,0.42,1.85
		c0,1.5-0.36,2.66-1.07,3.48c-1.61,1.98-3.34,3.61-5.19,4.88c-1.85,1.27-3.95,1.91-6.31,1.91c-1.91,0-3.35-0.55-4.32-1.65
		c-0.97-1.1-1.46-2.7-1.46-4.8c0-1.05,0.26-2.92,0.79-5.61c0.49-2.36,0.73-3.98,0.73-4.88c0-0.6-0.21-0.9-0.62-0.9
		c-0.49,0-1.18,0.63-2.08,1.88S29.8,57,28.91,59.06c-0.9,2.06-1.63,4.23-2.19,6.51c-0.41,1.79-0.89,2.99-1.43,3.59
		c-0.54,0.6-1.41,0.9-2.61,0.9c-1.23,0-2.16-0.59-2.78-1.77c-0.62-1.18-0.93-2.61-0.93-4.29c0-1.42,0.19-3.48,0.56-6.17
		c0.3-2.39,0.45-3.96,0.45-4.71c0-0.6-0.21-0.9-0.62-0.9c-0.56,0-1.27,0.67-2.13,2.02c-0.86,1.35-1.69,3.07-2.5,5.16
		c-0.8,2.09-1.45,4.15-1.94,6.17c-0.41,1.76-0.89,2.94-1.43,3.56c-0.54,0.62-1.39,0.92-2.55,0.92C7.41,70.05,6.41,69.3,5.83,67.81z"
		/>
	<path fill="#44e35f" d="M72.74,57.94c0.28,0.45,0.42,1.07,0.42,1.85c0,1.5-0.36,2.66-1.07,3.48c-1.38,1.68-3.34,3.23-5.86,4.66
		s-5.23,2.13-8.1,2.13c-3.93,0-6.97-1.07-9.14-3.2c-2.17-2.13-3.25-5.05-3.25-8.75c0-2.58,0.54-4.98,1.63-7.21
		c1.08-2.22,2.59-3.99,4.51-5.3c1.93-1.31,4.1-1.96,6.53-1.96c2.17,0,3.91,0.65,5.22,1.94c1.31,1.29,1.96,3.04,1.96,5.24
		c0,2.58-0.93,4.8-2.78,6.65c-1.85,1.85-4.98,3.32-9.39,4.4c0.93,1.72,2.71,2.58,5.33,2.58c1.68,0,3.6-0.59,5.75-1.77
		c2.15-1.18,4.01-2.72,5.58-4.63c0.45-0.52,0.95-0.79,1.51-0.79C72.07,57.26,72.46,57.49,72.74,57.94z M53.95,51.54
		c-0.95,1.61-1.43,3.55-1.43,5.83v0.11c2.21-0.52,3.94-1.31,5.22-2.36c1.27-1.05,1.91-2.26,1.91-3.65c0-0.71-0.2-1.28-0.59-1.71
		c-0.39-0.43-0.93-0.64-1.6-0.64C56.07,49.13,54.9,49.94,53.95,51.54z"/>
	<path fill="#44e35f" d="M69.68,67.53c-1.38-1.68-2.08-3.89-2.08-6.62c0-2.99,0.69-5.82,2.08-8.5c1.38-2.67,3.23-4.82,5.52-6.45
		c2.3-1.63,4.74-2.44,7.32-2.44c0.82,0,1.37,0.16,1.65,0.48c0.28,0.32,0.51,0.89,0.7,1.71c0.79-0.15,1.61-0.22,2.47-0.22
		c1.83,0,2.75,0.65,2.75,1.96c0,0.79-0.28,2.66-0.84,5.61c-0.86,4.3-1.29,7.29-1.29,8.97c0,0.56,0.14,1.01,0.42,1.35
		c0.28,0.34,0.65,0.5,1.09,0.5c0.71,0,1.57-0.46,2.58-1.38c1.01-0.92,2.37-2.4,4.09-4.46c0.45-0.52,0.95-0.79,1.51-0.79
		c0.49,0,0.87,0.22,1.15,0.67c0.28,0.45,0.42,1.07,0.42,1.85c0,1.5-0.36,2.66-1.07,3.48c-1.53,1.91-3.16,3.51-4.88,4.82
		c-1.72,1.31-3.38,1.96-4.99,1.96c-1.23,0-2.37-0.42-3.39-1.26c-1.03-0.84-1.8-1.99-2.33-3.45c-1.94,3.14-4.39,4.71-7.35,4.71
		C72.91,70.05,71.06,69.21,69.68,67.53z M79.61,62.93c0.75-0.97,1.29-2.26,1.63-3.87l2.08-10.32c-1.57,0.04-3.02,0.63-4.35,1.77
		c-1.33,1.14-2.38,2.65-3.17,4.52c-0.79,1.87-1.18,3.85-1.18,5.95c0,1.16,0.23,2.02,0.7,2.58c0.47,0.56,1.11,0.84,1.94,0.84
		C78.07,64.39,78.86,63.9,79.61,62.93z"/>
	<path fill="#44e35f" d="M117.1,57.94c0.28,0.45,0.42,1.07,0.42,1.85c0,1.5-0.36,2.66-1.07,3.48c-1.61,1.98-3.36,3.61-5.24,4.88
		c-1.89,1.27-4.03,1.91-6.42,1.91c-3.29,0-5.73-1.5-7.32-4.49c-1.59-2.99-2.38-6.86-2.38-11.61c0-4.56,0.59-9.76,1.77-15.59
		c1.18-5.83,2.92-10.84,5.22-15.03c2.3-4.19,5.04-6.28,8.22-6.28c1.79,0,3.21,0.83,4.23,2.5c1.03,1.66,1.54,4.05,1.54,7.15
		c0,4.45-1.23,9.61-3.7,15.48c-2.47,5.87-5.81,11.69-10.04,17.44c0.26,1.53,0.69,2.63,1.29,3.28c0.6,0.65,1.38,0.98,2.36,0.98
		c1.53,0,2.88-0.44,4.04-1.32c1.16-0.88,2.64-2.38,4.43-4.51c0.45-0.52,0.95-0.79,1.51-0.79C116.44,57.26,116.82,57.49,117.1,57.94z
		 M106.14,27.26c-1.08,3.1-2.04,6.95-2.86,11.55c-0.82,4.6-1.27,9.01-1.35,13.24c2.65-4.37,4.77-8.76,6.34-13.15
		c1.57-4.39,2.36-8.4,2.36-12.03c0-2.84-0.52-4.26-1.57-4.26C108.19,22.6,107.22,24.15,106.14,27.26z"/>
	<path fill="#44e35f" d="M118.95,69.94c-1.03-0.9-1.54-1.91-1.54-3.03c0-0.97,0.35-1.81,1.07-2.52c0.71-0.71,1.76-1.07,3.14-1.07
		c0.49,0,1.06,0.05,1.71,0.14c0.65,0.09,1.15,0.16,1.49,0.2c-0.04-0.97-0.25-1.89-0.65-2.75s-0.89-1.69-1.49-2.5
		c-0.6-0.8-1.16-1.5-1.68-2.1c-1.16,2.21-2.31,4.04-3.45,5.5c-1.14,1.46-2.38,2.84-3.73,4.15c-0.67,0.67-1.38,1.01-2.13,1.01
		c-0.6,0-1.08-0.21-1.46-0.64c-0.37-0.43-0.56-0.96-0.56-1.6c0-0.75,0.26-1.44,0.79-2.08l0.73-0.9c2.06-2.54,3.61-4.64,4.66-6.28
		c0.64-1.08,1.38-2.53,2.24-4.35c0.86-1.81,1.7-3.69,2.52-5.64c0.71-1.65,2.19-2.47,4.43-2.47c1.05,0,1.78,0.09,2.19,0.28
		c0.41,0.19,0.62,0.49,0.62,0.9c0,0.22-0.08,0.58-0.22,1.07c-0.15,0.49-0.36,0.97-0.62,1.46c-0.67,1.35-1.01,2.49-1.01,3.42
		c0,0.56,0.2,1.18,0.59,1.85s1,1.51,1.82,2.52c1.2,1.57,2.1,2.91,2.72,4.01c0.62,1.1,0.93,2.31,0.93,3.62c0,0.37-0.04,0.9-0.11,1.57
		c1.83-0.71,3.98-2.6,6.45-5.66c0.45-0.52,0.95-0.79,1.51-0.79c0.49,0,0.87,0.22,1.15,0.67c0.28,0.45,0.42,1.07,0.42,1.85
		c0,1.42-0.36,2.58-1.07,3.48c-1.87,2.32-3.66,3.9-5.36,4.74c-1.7,0.84-3.81,1.3-6.31,1.37c-1.5,1.27-3.27,1.91-5.33,1.91
		C121.47,71.29,119.98,70.84,118.95,69.94z"/>
	<path fill="#44e35f" d="M163.09,57.94c0.28,0.45,0.42,1.07,0.42,1.85c0,1.5-0.36,2.66-1.07,3.48c-1.61,1.98-3.37,3.61-5.27,4.88
		c-1.91,1.27-4.09,1.91-6.56,1.91c-7.63,0-11.44-5.37-11.44-16.1c0-1.64,0.06-3.31,0.17-4.99h-2.19c-1.12,0-1.88-0.2-2.27-0.62
		c-0.39-0.41-0.59-1.07-0.59-1.96c0-2.09,0.84-3.14,2.52-3.14h3.2c0.64-4.11,1.61-7.87,2.92-11.27c1.31-3.4,2.89-6.11,4.74-8.13
		c1.85-2.02,3.84-3.03,5.97-3.03c1.57,0,2.8,0.69,3.7,2.08c0.9,1.38,1.35,3.12,1.35,5.22c0,5.8-2.43,10.84-7.29,15.14h6.28
		c0.6,0,1.03,0.13,1.29,0.39c0.26,0.26,0.39,0.75,0.39,1.46c0,2.58-2.11,3.87-6.34,3.87h-6.84c-0.08,1.87-0.11,3.33-0.11,4.38
		c0,3.89,0.46,6.62,1.37,8.19c0.92,1.57,2.36,2.36,4.35,2.36c1.61,0,3.03-0.49,4.26-1.46c1.23-0.97,2.69-2.43,4.38-4.37
		c0.45-0.52,0.95-0.79,1.51-0.79C162.43,57.26,162.81,57.49,163.09,57.94z M150.25,28.29c-0.69,1.4-1.35,3.35-1.96,5.83
		c-0.62,2.49-1.13,5.24-1.54,8.27c2.21-1.91,3.86-4.05,4.96-6.42c1.1-2.37,1.66-4.53,1.66-6.48c0-2.21-0.41-3.31-1.23-3.31
		C151.57,26.19,150.94,26.89,150.25,28.29z"/>
	<path fill="#44e35f" d="M160.31,67.53c-1.38-1.68-2.08-3.89-2.08-6.62c0-2.99,0.69-5.82,2.08-8.5c1.38-2.67,3.23-4.82,5.52-6.45
		c2.3-1.63,4.74-2.44,7.32-2.44c0.82,0,1.37,0.16,1.65,0.48c0.28,0.32,0.51,0.89,0.7,1.71c0.79-0.15,1.61-0.22,2.47-0.22
		c1.83,0,2.75,0.65,2.75,1.96c0,0.79-0.28,2.66-0.84,5.61c-0.86,4.3-1.29,7.29-1.29,8.97c0,0.56,0.14,1.01,0.42,1.35
		c0.28,0.34,0.64,0.5,1.09,0.5c0.71,0,1.57-0.46,2.58-1.38c1.01-0.92,2.37-2.4,4.09-4.46c0.45-0.52,0.95-0.79,1.51-0.79
		c0.49,0,0.87,0.22,1.15,0.67c0.28,0.45,0.42,1.07,0.42,1.85c0,1.5-0.36,2.66-1.07,3.48c-1.53,1.91-3.16,3.51-4.88,4.82
		c-1.72,1.31-3.38,1.96-4.99,1.96c-1.23,0-2.37-0.42-3.39-1.26c-1.03-0.84-1.8-1.99-2.33-3.45c-1.95,3.14-4.39,4.71-7.35,4.71
		C163.55,70.05,161.7,69.21,160.31,67.53z M170.24,62.93c0.75-0.97,1.29-2.26,1.63-3.87l2.08-10.32c-1.57,0.04-3.02,0.63-4.35,1.77
		c-1.33,1.14-2.38,2.65-3.17,4.52c-0.79,1.87-1.18,3.85-1.18,5.95c0,1.16,0.23,2.02,0.7,2.58c0.47,0.56,1.11,0.84,1.94,0.84
		C168.71,64.39,169.49,63.9,170.24,62.93z"/>
	<path fill="#44e35f" d="M211.49,57.94c0.28,0.45,0.42,1.07,0.42,1.85c0,1.5-0.36,2.66-1.07,3.48c-1.61,1.98-3.37,3.61-5.27,4.88
		c-1.91,1.27-4.09,1.91-6.56,1.91c-7.63,0-11.44-5.37-11.44-16.1c0-1.64,0.06-3.31,0.17-4.99h-2.19c-1.12,0-1.88-0.2-2.27-0.62
		c-0.39-0.41-0.59-1.07-0.59-1.96c0-2.09,0.84-3.14,2.52-3.14h3.2c0.63-4.11,1.61-7.87,2.92-11.27c1.31-3.4,2.89-6.11,4.74-8.13
		c1.85-2.02,3.84-3.03,5.97-3.03c1.57,0,2.8,0.69,3.7,2.08c0.9,1.38,1.35,3.12,1.35,5.22c0,5.8-2.43,10.84-7.29,15.14h6.28
		c0.6,0,1.03,0.13,1.29,0.39c0.26,0.26,0.39,0.75,0.39,1.46c0,2.58-2.11,3.87-6.34,3.87h-6.84c-0.08,1.87-0.11,3.33-0.11,4.38
		c0,3.89,0.46,6.62,1.37,8.19c0.92,1.57,2.37,2.36,4.35,2.36c1.61,0,3.03-0.49,4.26-1.46c1.23-0.97,2.69-2.43,4.38-4.37
		c0.45-0.52,0.95-0.79,1.51-0.79C210.83,57.26,211.21,57.49,211.49,57.94z M198.65,28.29c-0.69,1.4-1.35,3.35-1.96,5.83
		c-0.62,2.49-1.13,5.24-1.54,8.27c2.21-1.91,3.86-4.05,4.96-6.42c1.1-2.37,1.66-4.53,1.66-6.48c0-2.21-0.41-3.31-1.23-3.31
		C199.97,26.19,199.34,26.89,198.65,28.29z"/>
	<path fill="#44e35f" d="M208.97,67.47c-1.1-1.72-1.66-4-1.66-6.84c0-1.68,0.21-3.84,0.65-6.48c0.43-2.64,0.98-5.09,1.65-7.38
		c0.34-1.2,0.79-2.02,1.35-2.47c0.56-0.45,1.46-0.67,2.69-0.67c1.91,0,2.86,0.64,2.86,1.91c0,0.94-0.36,3.1-1.07,6.51
		c-0.9,4.11-1.35,6.9-1.35,8.36c0,1.12,0.15,1.98,0.45,2.58c0.3,0.6,0.8,0.9,1.51,0.9c0.67,0,1.51-0.47,2.52-1.4
		c1.01-0.93,2.36-2.41,4.04-4.43c0.45-0.52,0.95-0.79,1.51-0.79c0.49,0,0.87,0.22,1.15,0.67c0.28,0.45,0.42,1.07,0.42,1.85
		c0,1.5-0.36,2.66-1.07,3.48c-3.7,4.52-7.16,6.79-10.38,6.79C211.84,70.05,210.07,69.19,208.97,67.47z M211.18,38.84
		c-0.79-0.73-1.18-1.75-1.18-3.06c0-1.31,0.51-2.4,1.54-3.28c1.03-0.88,2.31-1.32,3.84-1.32c1.38,0,2.5,0.34,3.37,1.01
		c0.86,0.67,1.29,1.63,1.29,2.86c0,1.5-0.49,2.68-1.46,3.56c-0.97,0.88-2.26,1.32-3.87,1.32C213.15,39.93,211.97,39.57,211.18,38.84
		z"/>
	<path fill="#44e35f" d="M250.89,53.28c0.26,0.49,0.39,1.1,0.39,1.85c0,1.79-0.54,2.86-1.63,3.2c-2.24,0.79-4.71,1.23-7.4,1.35
		c-0.71,3.14-2.11,5.66-4.21,7.54c-2.09,1.89-4.47,2.83-7.12,2.83c-2.24,0-4.16-0.54-5.75-1.63c-1.59-1.08-2.79-2.52-3.62-4.32
		c-0.82-1.79-1.23-3.74-1.23-5.83c0-2.84,0.54-5.37,1.63-7.6c1.08-2.22,2.58-3.96,4.49-5.22c1.91-1.25,4.02-1.88,6.34-1.88
		c2.84,0,5.13,0.98,6.87,2.94c1.74,1.96,2.76,4.38,3.06,7.26c1.76-0.11,3.85-0.49,6.28-1.12c0.3-0.07,0.56-0.11,0.79-0.11
		C250.26,52.55,250.63,52.8,250.89,53.28z M234.49,62.65c0.88-0.97,1.47-2.37,1.77-4.21c-1.16-0.79-2.05-1.81-2.66-3.08
		c-0.62-1.27-0.93-2.62-0.93-4.04c0-0.6,0.06-1.2,0.17-1.8h-0.28c-1.5,0-2.74,0.72-3.73,2.16c-0.99,1.44-1.49,3.47-1.49,6.08
		c0,2.06,0.4,3.63,1.21,4.71c0.8,1.08,1.75,1.63,2.83,1.63C232.57,64.11,233.61,63.62,234.49,62.65z"/>
	<path fill="#44e35f" d="M247.44,67.81c-0.58-1.5-0.87-3.89-0.87-7.18c0-4.86,0.69-9.48,2.08-13.85c0.34-1.08,0.89-1.88,1.65-2.38
		c0.77-0.5,1.84-0.76,3.22-0.76c0.75,0,1.27,0.09,1.57,0.28c0.3,0.19,0.45,0.54,0.45,1.07c0,0.6-0.28,1.94-0.84,4.04
		c-0.37,1.5-0.67,2.81-0.9,3.93c-0.22,1.12-0.41,2.51-0.56,4.15c1.23-3.21,2.62-5.83,4.15-7.85c1.53-2.02,3.04-3.46,4.51-4.32
		c1.48-0.86,2.83-1.29,4.07-1.29c1.2,0,2.1,0.31,2.72,0.93c0.62,0.62,0.92,1.52,0.92,2.72c0,0.97-0.21,2.8-0.62,5.5
		c-0.38,2.28-0.67,4.44-0.9,6.48c-0.22,2.04-0.34,4.31-0.34,6.81c0,1.42-0.29,2.44-0.87,3.06c-0.58,0.62-1.52,0.92-2.83,0.92
		c-1.23,0-2.13-0.32-2.69-0.95s-0.84-1.59-0.84-2.86c0-1.5,0.26-3.96,0.79-7.4c0.45-2.99,0.67-4.9,0.67-5.72
		c0-0.6-0.21-0.9-0.62-0.9c-0.49,0-1.17,0.63-2.05,1.88c-0.88,1.25-1.78,2.91-2.69,4.96c-0.92,2.06-1.65,4.23-2.22,6.51
		c-0.41,1.76-0.89,2.94-1.43,3.56c-0.54,0.62-1.39,0.92-2.55,0.92C249.02,70.05,248.02,69.3,247.44,67.81z"/>
</g>
<g>
	<path fill="#44e35f" d="M297.8,42.89c-0.1,0.02-0.78,1.02-2.53,3.68c-1.59,2.42-1.99,3.01-2.05,3.02c-0.09,0.02-0.3-0.14-0.32-0.25
		c-0.01-0.05,0.2-0.42,1-1.79c1.63-2.75,1.91-3.24,2.39-4.11c0.33-0.6,0.59-1.12,0.58-1.17c-0.04-0.19-0.74,0.8-2.85,4.02
		c-1.36,2.08-1.73,2.62-1.8,2.64c-0.12,0.03-0.33-0.15-0.31-0.27c0.02-0.1,0.42-0.79,1.13-1.92c2.16-3.47,3.1-5.1,2.91-5.06
		c-0.14,0.03-1.18,1.49-3.01,4.19c-1.41,2.08-1.64,2.41-1.7,2.42c-0.07,0.02-0.26-0.07-0.32-0.14c-0.05-0.06-0.05-0.07,0-0.2
		c0.03-0.07,0.33-0.57,0.66-1.1c1.3-2.08,3-4.91,3.22-5.34c0.12-0.23,0.18-0.41,0.16-0.43c-0.12-0.08-1.58,1.92-4.2,5.79
		c-1.13,1.66-1.45,2.2-1.54,2.57c-0.04,0.16-0.03,0.19,0.06,0.7c0.2,1.13,0.14,1.56-0.37,2.44c-0.7,1.23-3.09,5.04-3.87,6.19
		c-1.64,2.41-2.89,3.98-5.85,7.37c-1.94,2.22-2.04,2.35-2.15,2.83c-0.04,0.16-0.04,0.19,0.04,0.5c0.09,0.4,0.18,0.58,0.41,0.89
		c0.62,0.8,1.73,1.12,2.56,0.74c0.5-0.23,0.61-0.41,1.93-3.48c1.53-3.52,2.71-5.92,3.95-8c0.55-0.92,2.07-3.34,2.98-4.72
		c1.35-2.05,1.37-2.09,1.76-2.4c0.36-0.29,0.77-0.47,1.36-0.6c0.52-0.12,0.81-0.3,1.11-0.72c0.5-0.69,3.82-6.42,4.43-7.67
		C297.85,43,297.9,42.87,297.8,42.89L297.8,42.89z"/>
</g>
</svg>
